<svg id="Layer_1" data-name="Layer 1" xmlns="http://www.w3.org/2000/svg" xmlns:xlink="http://www.w3.org/1999/xlink" viewBox="0 0 500 410"><defs><style>.cls-1{fill:url(#linear-gradient);}.cls-2{fill:url(#linear-gradient-2);}.cls-3{fill:url(#linear-gradient-3);}.cls-4{fill:url(#linear-gradient-4);}.cls-5{fill:url(#linear-gradient-5);}.cls-6{fill:url(#linear-gradient-6);}.cls-7{fill:url(#linear-gradient-7);}.cls-8{fill:url(#linear-gradient-8);}.cls-9{fill:url(#linear-gradient-9);}.cls-10{fill:url(#linear-gradient-10);}.cls-11{opacity:0.5;fill:url(#linear-gradient-11);}.cls-12{fill:url(#linear-gradient-12);}.cls-13{fill:url(#linear-gradient-13);}.cls-14{fill:url(#linear-gradient-14);}.cls-15{fill:url(#linear-gradient-15);}.cls-16{fill:url(#linear-gradient-16);}.cls-17{fill:url(#linear-gradient-17);}.cls-18{fill:url(#linear-gradient-18);}</style><linearGradient id="linear-gradient" x1="254.55" y1="86.44" x2="249.99" y2="274.36" gradientTransform="translate(0 -88)" gradientUnits="userSpaceOnUse"><stop offset="0" stop-color="#e474c6"/><stop offset="0.99" stop-color="#0e7cf7"/></linearGradient><linearGradient id="linear-gradient-2" x1="76.03" y1="266.65" x2="95.41" y2="266.65" gradientTransform="translate(0 -88)" gradientUnits="userSpaceOnUse"><stop offset="0" stop-color="#6f469e"/><stop offset="1" stop-color="#360f6e"/></linearGradient><linearGradient id="linear-gradient-3" x1="404.59" y1="266.65" x2="423.97" y2="266.65" xlink:href="#linear-gradient-2"/><linearGradient id="linear-gradient-4" x1="260.08" y1="145.12" x2="247.55" y2="243.09" xlink:href="#linear-gradient-2"/><linearGradient id="linear-gradient-5" x1="220.31" y1="208.84" x2="262.46" y2="323.9" gradientTransform="translate(0 -88)" gradientUnits="userSpaceOnUse"><stop offset="0" stop-color="#8f4eb6"/><stop offset="0.99" stop-color="#5141ae"/></linearGradient><linearGradient id="linear-gradient-6" x1="239.58" y1="218.85" x2="265.78" y2="445.55" xlink:href="#linear-gradient"/><linearGradient id="linear-gradient-7" x1="189.38" y1="206.53" x2="322.17" y2="432.13" gradientTransform="translate(0 -88)" gradientUnits="userSpaceOnUse"><stop offset="0" stop-color="#d2f9ff"/><stop offset="0.99" stop-color="#618dd6"/></linearGradient><linearGradient id="linear-gradient-8" x1="252.79" y1="106.3" x2="247.1" y2="311.35" gradientTransform="translate(0 -88)" gradientUnits="userSpaceOnUse"><stop offset="0" stop-color="#cb9dff"/><stop offset="0.99" stop-color="#796afb"/></linearGradient><linearGradient id="linear-gradient-9" x1="188.6" y1="437.06" x2="398.21" y2="-9.51" xlink:href="#linear-gradient-7"/><linearGradient id="linear-gradient-10" x1="97.06" y1="384.42" x2="545.9" y2="-81.51" xlink:href="#linear-gradient-7"/><linearGradient id="linear-gradient-11" x1="250" y1="259.4" x2="250" y2="484.4" gradientTransform="translate(0 -88)" gradientUnits="userSpaceOnUse"><stop offset="0" stop-color="#95c5ff" stop-opacity="0"/><stop offset="0.08" stop-color="#abd2fd"/><stop offset="0.15" stop-color="#a8d0fd" stop-opacity="0.87"/><stop offset="0.29" stop-color="#a2cdfe" stop-opacity="0.61"/><stop offset="0.43" stop-color="#9ecafe" stop-opacity="0.39"/><stop offset="0.55" stop-color="#9ac8ff" stop-opacity="0.22"/><stop offset="0.66" stop-color="#97c6ff" stop-opacity="0.1"/><stop offset="0.76" stop-color="#96c5ff" stop-opacity="0.03"/><stop offset="0.82" stop-color="#95c5ff" stop-opacity="0"/></linearGradient><linearGradient id="linear-gradient-12" x1="124.3" y1="371.51" x2="124.3" y2="317.67" gradientTransform="matrix(1, 0, 0, 1, 0, 0)" xlink:href="#linear-gradient-2"/><linearGradient id="linear-gradient-13" x1="173.45" y1="371.1" x2="173.45" y2="331.19" gradientTransform="matrix(1, 0, 0, 1, 0, 0)" xlink:href="#linear-gradient-2"/><linearGradient id="linear-gradient-14" x1="205.8" y1="371.41" x2="205.8" y2="331.29" gradientTransform="matrix(1, 0, 0, 1, 0, 0)" xlink:href="#linear-gradient-2"/><linearGradient id="linear-gradient-15" x1="244.05" y1="371.4" x2="244.05" y2="322.9" gradientTransform="matrix(1, 0, 0, 1, 0, 0)" xlink:href="#linear-gradient-2"/><linearGradient id="linear-gradient-16" x1="281.05" y1="371.47" x2="281.05" y2="331.35" gradientTransform="matrix(1, 0, 0, 1, 0, 0)" xlink:href="#linear-gradient-2"/><linearGradient id="linear-gradient-17" x1="327.95" y1="371.1" x2="327.95" y2="318" gradientTransform="matrix(1, 0, 0, 1, 0, 0)" xlink:href="#linear-gradient-2"/><linearGradient id="linear-gradient-18" x1="382.75" y1="371.2" x2="382.75" y2="318" gradientTransform="matrix(1, 0, 0, 1, 0, 0)" xlink:href="#linear-gradient-2"/></defs><path class="cls-1" d="M250.8,24C90.1,24,79.2,152.8,79.2,152.8L125.4,174l11.8-54.2C145.5,86.7,174.5,77,206,71.4c29.5-5.2,63.4-6.2,92.8.3,28.8,6.4,58.8,16.9,65.6,48.1L376.2,174l46.2-21.2S411.5,24,250.8,24Z"/><path class="cls-2" d="M76,160.9v44.8a11.09,11.09,0,0,0,4.3,8.8l11.9,9.2,3.2-90.1C95.4,133.7,76,141.6,76,160.9Z"/><path class="cls-3" d="M424,160.9v44.8a11.09,11.09,0,0,1-4.3,8.8l-11.9,9.2-3.1-90.1C404.6,133.7,424,141.6,424,160.9Z"/><path class="cls-4" d="M365.2,104.2c-22.5,6.7-61.5,11.8-114.8,11.8s-92.3-5.2-114.8-11.8-30.2,24.6-30.2,24.6V136H395.5v-7.2S387.8,97.5,365.2,104.2Z"/><path class="cls-5" d="M345,122.2H155.9s-69.3-7.2-69.3,32V256.8s.7,7.2,19.6,16.3,41.2,15.7,103.9,16.3l13.8-10.9a18.67,18.67,0,0,1,10.1-4l16.4-.1,16.4.1a18.67,18.67,0,0,1,10.1,4l13.8,10.9c62.7-.7,84.9-7.2,103.9-16.3s19.6-16.3,19.6-16.3V154.2C414.3,115,345,122.2,345,122.2Z"/><path class="cls-6" d="M345,153.5H155.9s-69.3-6.2-69.3,27.4v87.8s.7,6.2,19.6,14c17.4,7.2,37.5,12.5,89.2,13.8a44,44,0,0,0,25.9-7.4l2.5-1.7a20.31,20.31,0,0,1,10.1-3.4l16.4-.1,16.4.1a20.31,20.31,0,0,1,10.1,3.4l2.5,1.7a44.51,44.51,0,0,0,26,7.4c51.7-1.3,71.8-6.6,89.2-13.8,19-7.8,19.6-14,19.6-14V180.9C414.3,147.3,345,153.5,345,153.5Z"/><path class="cls-7" d="M357.3,159.8c-6.8,0-11.4.4-11.5.4H155c-.1,0-4.7-.4-11.5-.4-18.3,0-49.1,2.8-49.1,21.1v86.6c.9,1.1,4.2,4.6,15.2,9.2,14.6,6,32.2,11.5,82.8,13a45,45,0,0,0,26.4-7.4,30.08,30.08,0,0,1,14.8-5l16.9-.1,16.7.1a31.12,31.12,0,0,1,14.8,5h0a45.76,45.76,0,0,0,26.4,7.4c50.6-1.5,68.2-7,82.8-13,11-4.5,14.3-8,15.2-9.2V180.9C406.4,162.5,375.7,159.8,357.3,159.8Z"/><path class="cls-8" d="M251.2,19.1c-16.9,0-27.1,5.6-27.1,5.6v98.2h54.3V24.7C278.3,24.7,268.1,19.1,251.2,19.1Z"/><path class="cls-9" d="M258,160.2l-94.2,128c8.2.7,17.6,1.2,28.7,1.5a45,45,0,0,0,26.4-7.4,30.08,30.08,0,0,1,14.8-5l10.8-.1,86.1-117Z"/><path class="cls-10" d="M190.9,160.2l-84.7,115c1,.5,2.2,1,3.4,1.5,8.6,3.5,18.1,6.9,34.8,9.4L237,160.3H190.9Z"/><polygon class="cls-11" points="487.2 342.8 12.8 342.8 108.9 166.48 391.1 166.48 487.2 342.8"/><path class="cls-12" d="M110.2,368a26.33,26.33,0,0,1-9.9-9.7,27.87,27.87,0,0,1,0-27.4,26.33,26.33,0,0,1,9.9-9.7,30,30,0,0,1,28.2,0,26.07,26.07,0,0,1,9.9,9.6,28.25,28.25,0,0,1,0,27.6,26.07,26.07,0,0,1-9.9,9.6,28.9,28.9,0,0,1-14.1,3.5A27.85,27.85,0,0,1,110.2,368Zm26.2-3.1a22.84,22.84,0,0,0,8.5-8.4,24.76,24.76,0,0,0,0-23.9,22.84,22.84,0,0,0-8.5-8.4,25.7,25.7,0,0,0-24.1,0,22.13,22.13,0,0,0-8.5,8.4,24.76,24.76,0,0,0,0,23.9,22.84,22.84,0,0,0,8.5,8.4A25.15,25.15,0,0,0,136.4,364.9Z"/><path class="cls-13" d="M173.4,333.5a18.2,18.2,0,0,1,9.4-2.3V335l-.9-.1c-4.4,0-7.8,1.4-10.3,4.1s-3.7,6.6-3.7,11.5v20.6h-3.8V331.5h3.6v8.6A15.21,15.21,0,0,1,173.4,333.5Z"/><path class="cls-14" d="M217.9,335c2.6,2.5,3.9,6.2,3.9,11v25.1h-3.6v-7a13.61,13.61,0,0,1-5.5,5.4,18.73,18.73,0,0,1-8.7,1.9c-4.4,0-7.9-1-10.4-3.1a10.75,10.75,0,0,1-1.3-15.1,4.74,4.74,0,0,1,1-1c2.4-2,6.1-3.1,11.3-3.1h13.6v-3.2q0-5.55-3-8.4c-2-1.9-4.9-2.9-8.8-2.9a20.06,20.06,0,0,0-7.6,1.4,20.9,20.9,0,0,0-6.1,3.6l-1.9-2.7a22,22,0,0,1,7.1-4.1,25.68,25.68,0,0,1,8.7-1.5C211.5,331.2,215.3,332.5,217.9,335Zm-5,31a13.55,13.55,0,0,0,5.2-6.6V352H204.6q-5.85,0-8.4,2.1a7.82,7.82,0,0,0,.3,11.9c1.9,1.5,4.6,2.2,8.1,2.2a13.68,13.68,0,0,0,8.3-2.2Z"/><path class="cls-15" d="M257.1,368.6a8.77,8.77,0,0,1-3.6,2.1,14.08,14.08,0,0,1-4.5.7,11.27,11.27,0,0,1-8-2.8c-1.9-1.8-2.8-4.5-2.8-7.9V334.8H231v-3.3h7.3v-8.6H242v8.6h12.6v3.3H242v25.5a8.09,8.09,0,0,0,1.9,5.9,7.52,7.52,0,0,0,5.5,2,8.37,8.37,0,0,0,6.1-2.2Z"/><path class="cls-16" d="M299.7,352.2h-34a16,16,0,0,0,2.4,8.2,14.73,14.73,0,0,0,6,5.6,19.29,19.29,0,0,0,15.6.6,14.72,14.72,0,0,0,5.5-4.1l2.2,2.5a17.25,17.25,0,0,1-6.5,4.8,22.56,22.56,0,0,1-19-.9,18.88,18.88,0,0,1-7.2-7.1,19.87,19.87,0,0,1-2.6-10.4,21.68,21.68,0,0,1,2.4-10.3,18.81,18.81,0,0,1,6.8-7.2,19.72,19.72,0,0,1,19.4,0,17.87,17.87,0,0,1,6.8,7.1,21.77,21.77,0,0,1,2.5,10.3Zm-26.3-15.8a13.26,13.26,0,0,0-5.3,5.2,15.71,15.71,0,0,0-2.3,7.6H296a15.71,15.71,0,0,0-2.3-7.6,14.67,14.67,0,0,0-12.9-7.1A15.66,15.66,0,0,0,273.4,336.4Z"/><path class="cls-17" d="M353.6,318l-23.7,53.1H326L302.3,318h4.2L328,366.1,349.5,318Z"/><path class="cls-18" d="M399,371.1l-12.7-17.7a43.79,43.79,0,0,1-5.1.4H366v17.4h-3.9V318h19c6.7,0,11.9,1.6,15.7,4.7s5.7,7.5,5.7,13.1a16.19,16.19,0,0,1-12.4,16.6L403.4,371Zm-17.8-20.8c5.7,0,10-1.2,13-3.8s4.5-6,4.5-10.6-1.5-8.1-4.5-10.6-7.3-3.8-13-3.8H366v28.8Z"/></svg>